<?xml version="1.0" standalone="no"?>
<!DOCTYPE svg PUBLIC "-//W3C//DTD SVG 20010904//EN"
 "http://www.w3.org/TR/2001/REC-SVG-20010904/DTD/svg10.dtd">
<svg version="1.0" xmlns="http://www.w3.org/2000/svg"
 width="1640.000000pt" height="2360.000000pt" viewBox="0 0 1640.000000 2360.000000"
 preserveAspectRatio="xMidYMid meet">

<g transform="translate(0.000000,2360.000000) scale(0.100000,-0.100000)"
fill="#000000" stroke="none">
<path d="M7630 17169 c-146 -12 -355 -52 -496 -95 -708 -214 -1228 -759 -1410
-1478 -23 -90 -64 -333 -64 -378 0 -17 24 -18 360 -18 l360 0 4 23 c2 12 12
69 21 127 23 141 83 321 150 447 201 379 519 607 965 690 115 21 428 29 577
13 322 -32 609 -133 804 -280 149 -112 290 -291 358 -455 126 -302 145 -684
49 -970 -147 -436 -549 -733 -1123 -829 -160 -27 -339 -36 -691 -36 l-344 0 0
-320 0 -320 303 0 c727 0 1038 -49 1367 -215 460 -232 686 -685 631 -1265 -31
-320 -128 -573 -301 -785 -215 -263 -574 -436 -1010 -485 -214 -24 -536 -8
-720 35 -493 117 -869 444 -1049 910 -57 150 -93 288 -115 439 l-11 81 -365 0
-365 0 3 -50 c5 -87 41 -296 72 -415 121 -480 357 -867 705 -1159 152 -128
312 -226 496 -304 746 -318 1787 -263 2448 130 372 222 649 541 804 928 117
293 164 572 154 915 -6 192 -19 285 -62 446 -135 511 -503 891 -1050 1089 -55
19 -109 39 -119 43 -15 7 -6 13 45 31 102 37 276 127 379 196 355 237 581 577
671 1007 30 145 38 462 15 638 -73 558 -349 1007 -802 1305 -113 75 -339 183
-476 228 -355 118 -781 167 -1168 136z"/>
</g>
</svg>
